<?xml version="1.0" encoding="UTF-8" standalone="no"?>
<!-- Created with Inkscape (http://www.inkscape.org/) -->

<svg
   width="26.458332mm"
   height="26.458332mm"
   viewBox="0 0 26.458331 26.458331"
   version="1.1"
   id="svg1"
   inkscape:version="1.3.2 (091e20e, 2023-11-25, custom)"
   sodipodi:docname="air_circulation_white.svg"
   xmlns:inkscape="http://www.inkscape.org/namespaces/inkscape"
   xmlns:sodipodi="http://sodipodi.sourceforge.net/DTD/sodipodi-0.dtd"
   xmlns="http://www.w3.org/2000/svg"
   xmlns:svg="http://www.w3.org/2000/svg">
  <sodipodi:namedview
     id="namedview1"
     pagecolor="#ffffff"
     bordercolor="#000000"
     borderopacity="0.25"
     inkscape:showpageshadow="2"
     inkscape:pageopacity="0.0"
     inkscape:pagecheckerboard="true"
     inkscape:deskcolor="#d1d1d1"
     inkscape:document-units="mm"
     inkscape:zoom="0.74029882"
     inkscape:cx="200.59467"
     inkscape:cy="200.59467"
     inkscape:window-width="1920"
     inkscape:window-height="1009"
     inkscape:window-x="-8"
     inkscape:window-y="-8"
     inkscape:window-maximized="1"
     inkscape:current-layer="layer1"
     showgrid="false" />
  <defs
     id="defs1" />
  <g
     inkscape:label="Layer 1"
     inkscape:groupmode="layer"
     id="layer1"
     transform="translate(-52.122899,-95.514579)">
    <g
       id="g73"
       transform="matrix(0.24999998,0,0,0.24999998,-45.741286,48.74375)">
      <path
         style="fill:#ffffff;fill-opacity:1;stroke:none;stroke-width:6.25"
         d="m 391.45677,187.08333 v 9.525 -9.525 m 96.30812,0 9.2606,0.6175 -9.26034,-0.6175 m -7.40837,67.73335 c 8.85105,-0.69876 17.97671,-9.993 11.37711,-18.96176 -2.3217,-3.15514 -10.64637,-2.22802 -14.02291,-4.05702 -5.95162,-3.22374 -8.97828,-12.21811 -15.87496,-13.84649 -4.7353,-1.11806 -9.98842,-0.23626 -14.81664,-0.70556 -3.48294,-0.33876 -7.43292,-1.4822 -10.5833,0.70556 -5.27372,3.66231 -10.09328,12.26937 -16.40414,13.93475 -6.01466,1.58718 -14.6894,1.08226 -20.10827,4.14514 -5.54542,3.13436 -6.1143,10.56856 -1.94024,14.99306 2.03374,2.15582 6.32798,1.65676 8.81943,3.175 4.1748,2.544 4.2213,8.75575 11.11246,7.32013 3.70424,-0.77176 5.29636,-5.15331 8.4666,-5.64443 5.6853,-0.88082 12.2284,0 17.99164,0 5.58112,0 11.96122,-0.877 17.46246,0 2.77736,0.4425 3.98124,5.65561 7.40828,6.70273 5.39268,1.64776 10.9668,-2.22506 11.11248,-7.76111 m -3.70412,-3.175 c 0,2.00262 0.43812,4.25062 -1.05836,5.82088 -4.00506,4.20205 -9.76848,-0.345 -8.4666,-5.2917 h -45.50826 c -0.33374,4.22876 -5.20898,7.95619 -8.81942,4.05694 -1.30218,-1.40638 -0.7338,-3.75156 -2.29306,-4.85068 -3.54522,-2.49914 -11.91377,-1.2135 -11.46521,-7.67294 0.23186,-3.34144 3.60842,-4.44008 6.17361,-4.93888 5.29024,-1.02864 13.25914,-1.22896 17.99158,-3.79238 5.98078,-3.23958 9.6719,-10.1427 15.34582,-13.84652 2.16232,-1.41155 4.58236,-0.39938 6.87912,-0.1762 4.86024,0.4725 11.26084,-0.89655 15.87496,0.70556 5.36628,1.86324 8.70228,9.63226 13.22914,12.96456 3.73342,2.74826 10.14105,1.1937 13.67009,4.05696 3.50394,2.8428 0.7175,8.60518 -2.02842,10.75974 -2.0578,1.61458 -6.97137,2.00326 -9.52499,2.20482 m -30.6916,-5.82082 v 2.64582 l 15.87496,-5.29164 c -3.13694,-2.70918 -11.65266,-5.4875 -15.87496,-5.82088 v 2.64588 c -3.55306,0 -12.60766,-2.99688 -5.29166,-6.35 4.2646,-1.95462 11.75334,-0.52938 16.40414,-0.52938 v -5.8208 c -6.07918,0 -15.94728,-1.8607 -21.16664,1.76388 -5.46854,3.79762 -5.8081,11.31182 0,14.99306 3.0368,1.9247 6.62918,1.76388 10.05416,1.76388 m -54.50405,47.09583 h 9.52498 m 86.78316,-4.2e-4 h 9.52496 z"
         id="path69"
         sodipodi:nodetypes="cccccccssssssssssssssccsccsssssssssssccccccsccsscccccc" />
    </g>
  </g>
</svg>
