<?xml version="1.0" encoding="UTF-8" standalone="no"?>
<!-- Created with Inkscape (http://www.inkscape.org/) -->

<svg
   width="26.458334mm"
   height="26.458334mm"
   viewBox="0 0 26.458333 26.458333"
   version="1.1"
   id="svg1"
   inkscape:version="1.3.2 (091e20e, 2023-11-25, custom)"
   sodipodi:docname="heated_seat_white.svg"
   xmlns:inkscape="http://www.inkscape.org/namespaces/inkscape"
   xmlns:sodipodi="http://sodipodi.sourceforge.net/DTD/sodipodi-0.dtd"
   xmlns="http://www.w3.org/2000/svg"
   xmlns:svg="http://www.w3.org/2000/svg">
  <sodipodi:namedview
     id="namedview1"
     pagecolor="#ffffff"
     bordercolor="#000000"
     borderopacity="0.25"
     inkscape:showpageshadow="2"
     inkscape:pageopacity="0.0"
     inkscape:pagecheckerboard="true"
     inkscape:deskcolor="#d1d1d1"
     inkscape:document-units="mm"
     inkscape:zoom="0.74029882"
     inkscape:cx="189.78823"
     inkscape:cy="239.76804"
     inkscape:window-width="1920"
     inkscape:window-height="1009"
     inkscape:window-x="-8"
     inkscape:window-y="-8"
     inkscape:window-maximized="1"
     inkscape:current-layer="layer1"
     showgrid="false" />
  <defs
     id="defs1" />
  <g
     inkscape:label="Layer 1"
     inkscape:groupmode="layer"
     id="layer1"
     transform="translate(-54.989614,-85.094491)">
    <g
       id="g71"
       transform="matrix(0.25,0,0,0.25,19.312144,38.323658)">
      <g
         id="g67"
         transform="matrix(0.52916667,0,0,0.52916667,142.70988,187.08333)">
        <g
           fill="none"
           id="g5">
          <g
             stroke="#999999"
             stroke-width="3"
             id="g4">
            <path
               d="M 0,16 V 0 h 16"
               id="path1"
               style="fill:none;stroke:none" />
            <path
               d="M 200,16 V 0 h -16"
               id="path2"
               style="fill:none;stroke:none" />
            <path
               d="m 0,184 v 16 h 16"
               id="path3"
               style="fill:none;stroke:none" />
            <path
               d="m 200,184 v 16 h -16"
               id="path4"
               style="fill:none;stroke:none" />
          </g>
          <path
             d="M 138.15,160.59 171.281,36.94 158.428,33.4962 a 5.5345,5.5345 0 0 0 -6.662,3.5343 l -27.794,80.237 -91.122,-4.7755 a 4.8614,4.8614 0 0 0 -4.586,7.0617 l 20.908,41.035 z"
             stroke="#000000"
             stroke-width="10"
             id="path5"
             style="stroke:#ffffff;stroke-width:10.0006;stroke-dasharray:none;stroke-opacity:1" />
        </g>
        <path
           d="M 84.826,62.064 77.41,77.966 h 2.0039 l 4.9551,23.314 c 0.67579,3.1793 0.32778,6.4877 -0.99414,9.457 l -6.9121,15.529 c -2.2546,5.0643 -2.4545,10.81 -0.55859,16.02 l 7.8672,21.617 c 1.0618,2.9174 1.0618,6.112 0,9.0293 l -1.0605,2.9141 h 10.615 c 1.6871,-4.988 1.6462,-10.405 -0.1582,-15.363 l -7.8672,-21.617 c -1.0108,-2.7772 -0.9051,-5.8333 0.29688,-8.5332 l 6.9141,-15.527 c 2.1803,-4.8973 2.7533,-10.362 1.6387,-15.605 l -4.5137,-21.234 h 2.6035 z"
           id="path6"
           style="fill:#ffffff;fill-opacity:1" />
        <path
           d="M 61.156,62.064 53.74,77.966 h 2.0039 l 4.9551,23.314 c 0.67579,3.1793 0.32778,6.4877 -0.99414,9.457 l -6.9121,15.529 c -2.2546,5.0643 -2.4545,10.81 -0.55859,16.02 l 7.8672,21.617 c 1.0618,2.9174 1.0618,6.112 0,9.0293 l -1.0605,2.9141 h 10.615 c 1.6871,-4.988 1.6462,-10.405 -0.1582,-15.363 l -7.8672,-21.617 c -1.0108,-2.7772 -0.9051,-5.8333 0.29688,-8.5332 l 6.9141,-15.527 c 2.1803,-4.8973 2.7533,-10.362 1.6387,-15.605 l -4.5137,-21.234 h 2.6035 z"
           id="path7"
           style="fill:#ffffff;fill-opacity:1" />
        <path
           d="m 108.5,62.064 -7.416,15.902 h 2.0039 l 4.9551,23.314 c 0.6758,3.1793 0.32778,6.4877 -0.99414,9.457 l -6.9121,15.529 c -2.2546,5.0643 -2.4545,10.81 -0.55859,16.02 l 7.8672,21.617 c 1.0618,2.9174 1.0618,6.112 0,9.0293 l -1.0606,2.9141 h 10.615 c 1.6871,-4.988 1.6462,-10.405 -0.1582,-15.363 l -7.8672,-21.617 c -1.0108,-2.7772 -0.9051,-5.8333 0.29688,-8.5332 l 6.9141,-15.527 c 2.1802,-4.8973 2.7533,-10.362 1.6387,-15.605 l -4.5137,-21.234 h 2.6035 z"
           id="path8"
           style="fill:#ffffff;fill-opacity:1" />
      </g>
    </g>
  </g>
</svg>
